HIERARCHY
ROOT root
{
	OFFSET	0	13.1	24.9
	CHANNELS 6  Xposition Yposition Zposition Xrotation Yrotation Zrotation
	JOINT spine_1
	{
		OFFSET	0	9.99999	0
		CHANNELS 3  Xrotation Yrotation Zrotation
		JOINT spine_2
		{
			OFFSET	0	112	-10
			CHANNELS 3  Xrotation Yrotation Zrotation
			JOINT spine_3
			{
				OFFSET	0	206.5	19.3
				CHANNELS 3  Xrotation Yrotation Zrotation
				JOINT spine_4
				{
					OFFSET	0	110.4	14.6
					CHANNELS 3  Xrotation Yrotation Zrotation
					JOINT neck_1
					{
						OFFSET	0	71.8	-50.3
						CHANNELS 3  Xrotation Yrotation Zrotation
						JOINT neck_2
						{
							OFFSET	0	86.2	-25.8
							CHANNELS 3  Xrotation Yrotation Zrotation
							JOINT head_ee
							{
								OFFSET	0	179.8	-8.7
								CHANNELS 3  Xrotation Yrotation Zrotation
								End Site
								{
									OFFSET	1	0	0
								}
							}
						}
					}
					JOINT left_clavicle
					{
						OFFSET	-43.2	22.4	-70.8
						CHANNELS 3  Xrotation Yrotation Zrotation
						JOINT left_shoulder
						{
							OFFSET	-93.9	-5.79999	48.7
							CHANNELS 3  Xrotation Yrotation Zrotation
							JOINT left_elbow
							{
								OFFSET	-291.4	-30.8	15.2
								CHANNELS 3  Xrotation Yrotation Zrotation
								JOINT left_lowarm_twist
								{
									OFFSET	-110.7	-3.89999	13.6
									CHANNELS 3  Xrotation Yrotation Zrotation
									JOINT left_hand
									{
										OFFSET	-110.7	-3.89999	13.6
										CHANNELS 3  Xrotation Yrotation Zrotation
										JOINT left_ee
										{
											OFFSET	-80.8	-5.10001	12.1
											CHANNELS 3  Xrotation Yrotation Zrotation
											End Site
											{
												OFFSET	1	0	0
											}
										}
									}
								}
							}
						}
					}
					JOINT right_clavicle
					{
						OFFSET	43.2	22.4	-70.8
						CHANNELS 3  Xrotation Yrotation Zrotation
						JOINT right_shoulder
						{
							OFFSET	93.9	-5.79999	48.7
							CHANNELS 3  Xrotation Yrotation Zrotation
							JOINT right_elbow
							{
								OFFSET	291.4	-30.8	15.2
								CHANNELS 3  Xrotation Yrotation Zrotation
								JOINT right_lowarm_twist
								{
									OFFSET	110.7	-3.89999	13.6
									CHANNELS 3  Xrotation Yrotation Zrotation
									JOINT right_hand
									{
										OFFSET	110.7	-3.89999	13.6
										CHANNELS 3  Xrotation Yrotation Zrotation
										JOINT right_ee
										{
											OFFSET	80.8	-5.10001	12.1
											CHANNELS 3  Xrotation Yrotation Zrotation
											End Site
											{
												OFFSET	1	0	0
											}
										}
									}
								}
							}
						}
					}
				}
			}
		}
	}
	JOINT left_hip
	{
		OFFSET	-82.8	-127.5	0.300001
		CHANNELS 3  Xrotation Yrotation Zrotation
		JOINT left_knee
		{
			OFFSET	-28.2	-396.7	2.2
			CHANNELS 3  Xrotation Yrotation Zrotation
			JOINT left_ankle
			{
				OFFSET	-11.7	-411.3	35.4
				CHANNELS 3  Xrotation Yrotation Zrotation
				JOINT left_toes
				{
					OFFSET	0	-60	-88.6
					CHANNELS 3  Xrotation Yrotation Zrotation
					JOINT left_foot_ee
					{
						OFFSET	-22.5	-16.5	-42.2
						CHANNELS 3  Xrotation Yrotation Zrotation
						End Site
						{
							OFFSET	1	0	0
						}
					}
				}
			}
		}
	}
	JOINT right_hip
	{
		OFFSET	82.8	-127.5	0.300001
		CHANNELS 3  Xrotation Yrotation Zrotation
		JOINT right_knee
		{
			OFFSET	28.2	-396.7	2.2
			CHANNELS 3  Xrotation Yrotation Zrotation
			JOINT right_ankle
			{
				OFFSET	11.7	-411.3	35.4
				CHANNELS 3  Xrotation Yrotation Zrotation
				JOINT right_toes
				{
					OFFSET	0	-60	-88.6
					CHANNELS 3  Xrotation Yrotation Zrotation
					JOINT right_foot_ee
					{
						OFFSET	22.5	-16.5	-42.2
						CHANNELS 3  Xrotation Yrotation Zrotation
						End Site
						{
							OFFSET	1	0	0
						}
					}
				}
			}
		}
	}
}
MOTION
Frames: 12
Frame Time: 0.02
552.462 651.229 -1434.95 176.334 -61.0725 178.651 -1.36724 -0.659408 -1.66205 -1.36588 -0.552327 -1.70063 -1.34773 -0.140809 -1.7825 -1.35191 -0.420511 -1.73791 2.8091 -0.251645 0.0149024 2.8093 -0.451833 -0.00188747 -0.0 0.0 -0.0 9.84352 -10.8448 19.4774 2.93181 -27.6136 51.2416 2.84672 -54.6481 1.47104 -0.298953 -0.0106293 0.0366996 -2.87575 -4.9199 -22.001 -0.0 0.0 -0.0 8.24452 -0.756552 -16.0612 -56.2942 49.6935 -46.0725 0.453359 12.6577 -0.0502825 -24.9799 1.51308 -2.78716 -2.68391 -13.525 11.3321 0.0 0.0 0.0 -16.9144 6.18725 -1.65261 -12.4647 0.309309 1.88412 39.102 -7.48889 -4.89552 -9.24152 0.0 0.0 -0.0 0.0 -0.0 28.8741 -2.44724 -0.140655 -8.84682 -0.261912 -1.33111 -17.3899 -8.6227 -2.61114 -7.72863 0.0 0.0 0.0 0.0 0.0 
565.402 646.904 -1429.09 178.325 -61.7788 179.956 -1.11782 -0.64809 -1.70921 -1.11635 -0.538032 -1.74697 -1.09824 -0.124044 -1.82371 -1.10265 -0.410463 -1.78126 2.74303 -0.18355 -0.34801 2.74335 -0.0244696 -0.400274 -0.0 0.0 -0.0 9.70555 -11.7833 19.1537 3.50348 -25.7409 53.239 2.98094 -55.8829 1.58135 -0.0375729 -0.00132551 0.00461541 -2.74485 -3.13455 -20.1983 -0.0 0.0 -0.0 8.17488 -1.47291 -15.9041 -56.8076 49.5362 -44.862 0.45346 12.6605 -0.0503049 -25.6369 1.56865 -2.85041 -2.72388 -13.8455 11.4191 0.0 0.0 0.0 -17.4911 5.97963 -1.14736 -10.7527 0.291234 1.62206 38.7843 -7.86186 -4.8745 -8.17284 0.0 0.0 -0.0 0.0 -0.0 30.156 -1.94 0.758509 -10.5645 -0.288771 -1.59331 -17.6609 -11.0081 -2.65435 -7.59032 0.0 0.0 0.0 0.0 0.0 
577.413 645.8 -1424.3 178.843 -61.7459 179.621 -1.16415 -0.585006 -1.62456 -1.16281 -0.48046 -1.65848 -1.14736 -0.0867416 -1.72447 -1.15134 -0.357962 -1.68915 1.93555 0.552068 -0.673555 1.93976 1.53664 -0.695249 -0.0 0.0 -0.0 9.68801 -12.921 19.0817 3.18021 -23.889 53.7353 2.99625 -56.0189 1.59403 -0.0275222 -0.000970552 0.0033809 -2.66749 -1.32225 -18.7689 -0.0 0.0 -0.0 8.25819 -1.19968 -16.0771 -56.3507 49.2471 -43.5465 0.482764 13.4497 -0.0569243 -25.6165 1.56691 -2.84846 -2.76399 -14.3164 11.4257 0.0 0.0 0.0 -16.7865 5.24592 -0.0908144 -13.1016 0.314034 1.98172 37.7178 -7.67806 -4.77472 -7.28516 0.0 0.0 -0.0 0.0 -0.0 30.5051 -2.15881 1.64302 -12.0546 -0.305693 -1.8213 -17.3143 -12.2735 -2.60467 -7.9255 0.0 0.0 0.0 0.0 0.0 
591.063 645.645 -1413.07 -178.886 -62.3705 -179.474 -0.889713 -0.474689 -1.42809 -0.888659 -0.382864 -1.4554 -0.877866 -0.0454365 -1.50422 -0.880913 -0.282403 -1.47817 3.04649 0.606518 -0.801909 3.05255 1.7412 -0.851523 -0.0 0.0 -0.0 9.67075 -15.8411 18.9231 1.64859 -20.5492 54.4453 2.99515 -56.0092 1.59312 0.706931 0.0243711 -0.0869966 -2.55806 -3.24324 -18.9167 -0.0 0.0 -0.0 8.10778 -1.87949 -15.76 -54.2984 49.6297 -43.2709 0.509582 14.1675 -0.0633254 -25.1563 1.52793 -2.8042 -2.62369 -16.1952 9.55047 0.0 0.0 0.0 -16.0593 0.822814 0.805525 -12.7035 0.311208 1.92071 37.3743 -8.65374 -4.76237 -6.48159 0.0 0.0 -0.0 0.0 -0.0 32.616 -1.6115 3.00058 -16.5838 -0.32067 -2.51588 -17.6349 -14.803 -2.66328 -5.51081 0.0 0.0 0.0 0.0 0.0 
606.153 648.06 -1398.84 178.953 -62.5363 178.161 -1.28162 -0.273864 -1.31155 -1.28069 -0.18986 -1.32631 -1.2754 0.122872 -1.33418 -1.27787 -0.0893606 -1.33685 3.62923 0.725799 -1.80057 3.65122 2.80713 -1.9765 -0.0 0.0 -0.0 9.78445 -17.7361 19.0718 -0.0651838 -17.9029 54.3423 3.02875 -56.3046 1.62102 0.727841 0.0250756 -0.0895744 -2.31242 -1.89623 -16.5436 -0.0 0.0 -0.0 8.46857 -0.930958 -16.505 -52.4421 50.2098 -43.7707 0.46479 12.9662 -0.0528176 -25.0811 1.52159 -2.79695 -2.1411 -15.6495 6.8269 0.0 0.0 0.0 -15.972 0.978867 1.33342 -15.9245 0.321905 2.41473 34.1245 -4.05525 -4.37513 -5.57132 0.0 0.0 -0.0 0.0 -0.0 29.9857 -0.630091 3.12403 -16.1545 -0.321606 -2.45002 -15.7257 -15.9741 -2.37757 -7.60435 0.0 0.0 0.0 0.0 0.0 
623.596 651.359 -1380.36 -178.574 -63.8374 -179.913 -0.823289 -0.266723 -1.19384 -0.822516 -0.190221 -1.20839 -0.817853 0.0854265 -1.22028 -0.819915 -0.108351 -1.21846 4.81948 0.240342 -0.80986 4.82368 1.11931 -0.910819 -0.0 0.0 -0.0 9.95794 -20.6151 19.2631 -4.16208 -14.5869 55.2523 3.04826 -56.474 1.63727 0.541807 0.018775 -0.0666496 -2.13282 -2.69295 -15.6621 -0.0 0.0 -0.0 8.68185 -1.62636 -16.9089 -55.5006 50.5341 -41.7222 0.588072 16.2417 -0.0839141 -22.8615 1.33891 -2.57897 -1.74397 -16.1067 4.15019 0.0 0.0 0.0 -15.8902 -0.308831 1.83548 -13.6198 0.317078 2.06119 33.7163 -4.4481 -4.33983 -5.12285 0.0 0.0 -0.0 0.0 -0.0 31.5906 -2.91151 3.93345 -20.4573 -0.289921 -3.1093 -12.8336 -15.6403 -1.93387 -5.06468 0.0 0.0 0.0 0.0 0.0 
640.247 651.417 -1365.9 179.446 -63.9621 177.603 -1.38221 -0.23131 -0.943366 -1.38173 -0.170815 -0.956172 -1.37838 0.057303 -0.969616 -1.37968 -0.0965416 -0.966498 7.13464 0.780141 -0.83701 7.14457 2.06161 -0.95942 -0.0 0.0 -0.0 9.88365 -21.9872 18.9866 -5.50728 -12.9839 55.7584 2.96963 -55.7817 1.57198 1.45585 0.0490155 -0.179476 -2.04738 -2.29564 -14.882 -0.0 0.0 -0.0 8.70848 -0.0367221 -17.0137 -51.1091 51.3681 -44.1395 0.524331 14.5603 -0.0669844 -23.8628 1.42027 -2.67817 -1.20923 -12.7891 2.35121 0.0 0.0 0.0 -15.0658 -1.17978 3.17574 -17.0092 0.319254 2.58114 32.4151 -2.09303 -4.18075 -5.06921 0.0 0.0 -0.0 0.0 -0.0 29.3874 -3.25953 4.3643 -21.4193 -0.276071 -3.25626 -10.5962 -18.3054 -1.60346 -5.97503 0.0 0.0 0.0 0.0 0.0 
662.34 653.897 -1349.48 178.373 -63.1939 176.453 -1.50904 -0.220185 -0.91153 -1.50859 -0.161738 -0.923692 -1.50551 0.0606178 -0.935784 -1.50672 -0.0879259 -0.933614 8.47509 1.08613 0.0452191 8.47952 1.76476 0.0742936 -0.0 0.0 -0.0 9.72772 -21.2289 18.7002 -8.15562 -9.84283 57.9416 2.94851 -55.5915 1.55454 -1.8077 -0.0671902 0.221052 -1.91773 -4.83771 -15.1474 -0.0 0.0 -0.0 8.86527 -0.101532 -17.3294 -54.7568 52.8733 -40.1586 0.655499 17.9895 -0.10376 -21.2092 1.2085 -2.41224 -0.827721 -11.1331 0.668534 0.0 0.0 0.0 -14.6445 -2.15268 3.45906 -19.6379 0.299771 2.98395 30.397 -1.44388 -3.96441 -4.73466 0.0 0.0 -0.0 0.0 -0.0 28.3962 -1.68646 4.01128 -25.3032 -0.195125 -3.84665 -4.32135 -17.0412 -0.645349 -6.14136 0.0 0.0 0.0 0.0 0.0 
679.86 660.399 -1337.81 176.584 -60.3699 174.056 -2.15431 -0.110493 -0.624901 -2.15409 -0.0705063 -0.630665 -2.15307 0.0872977 -0.628561 -2.15362 -0.0130653 -0.634459 10.5455 0.641922 -0.281486 10.5491 1.30567 -0.343569 -0.0 0.0 -0.0 9.37274 -18.5536 18.1044 -9.27722 -7.26059 58.8927 2.78454 -54.0493 1.42051 -4.59456 -0.184368 0.55746 -1.56011 -9.39995 -14.682 -0.0 0.0 -0.0 9.04272 1.0918 -17.7264 -52.9401 54.5285 -39.6324 0.581405 16.0671 -0.0820592 -21.0504 1.19623 -2.39603 -0.205339 -5.52395 -0.962762 0.0 0.0 0.0 -10.7781 -4.38981 4.87664 -31.0479 0.00250358 4.70689 31.7401 5.33981 -4.07144 -1.12824 0.0 0.0 -0.0 0.0 -0.0 26.0625 -2.31828 4.33675 -26.1924 -0.170972 -3.98098 -1.26851 -12.8778 -0.186734 -7.99671 0.0 0.0 0.0 0.0 0.0 
695.975 663.424 -1329.22 175.673 -59.8697 172.632 -2.48718 0.0193597 -0.425194 -2.48708 0.0463764 -0.4231 -2.48733 0.151671 -0.397694 -2.48754 0.0869599 -0.416657 10.469 0.022479 -0.643883 10.4714 0.629754 -0.789356 -0.0 0.0 -0.0 9.52061 -17.2462 18.514 -10.2316 -5.69416 59.3626 2.59358 -52.0962 1.26783 -6.47182 -0.272479 0.780729 -1.42102 -12.4162 -15.0147 -0.0 0.0 -0.0 9.21317 0.750954 -18.066 -49.6429 53.7285 -41.3804 0.573177 15.8513 -0.0797969 -21.1409 1.20322 -2.40527 0.543184 -2.95913 -4.84261 0.0 0.0 0.0 -7.32273 -5.88291 5.24293 -40.0032 -0.466967 5.99873 33.5088 6.54565 -4.25179 0.782952 -0.0 -0.0 -0.0 0.0 -0.0 25.4442 -0.896951 4.78978 -28.6395 -0.0937669 -4.34857 0.688821 -15.8244 0.10149 -7.35134 0.0 0.0 0.0 0.0 0.0 
704.688 665.945 -1327.16 174.918 -60.3279 171.284 -2.6847 -0.0568112 -0.241051 -2.68467 -0.0413574 -0.244177 -2.68445 0.0224624 -0.246634 -2.68453 -0.0167706 -0.247086 9.42238 -0.0695091 -0.586192 9.42393 0.420906 -0.709733 -0.0 0.0 -0.0 9.01099 -18.3571 17.3156 -7.52944 -2.05633 62.6893 2.10411 -46.1813 0.897158 -9.63528 -0.437388 1.15014 -1.38234 -13.2697 -15.1088 -0.0 0.0 -0.0 9.15637 3.25543 -18.0099 -48.4171 55.18 -39.9341 0.622198 17.1304 -0.093713 -18.5534 1.00917 -2.13666 0.925374 -1.93991 -6.9788 0.0 0.0 0.0 -3.0967 -5.6385 5.44767 -47.0855 -0.97792 6.96015 34.5681 10.0151 -4.36904 1.21748 -0.0 -0.0 -0.0 0.0 -0.0 24.7556 -0.53681 5.78762 -30.0582 -0.0418342 -4.56009 4.93495 -17.4652 0.722292 -7.67122 0.0 0.0 0.0 0.0 0.0 
709.381 669.523 -1323.15 174.928 -61.3792 170.882 -2.77968 -0.149498 -0.213037 -2.77967 -0.135639 -0.222118 -2.7791 -0.0739146 -0.249541 -2.77917 -0.112397 -0.234736 8.40596 0.872715 0.333414 8.40758 1.14998 0.414767 -0.0 0.0 -0.0 9.39079 -18.9069 18.1209 -6.27944 0.532072 63.1994 1.72309 -40.4795 0.635372 -11.011 -0.515434 1.30788 -1.31357 -13.52 -14.7368 -0.0 0.0 -0.0 9.12924 7.57172 -17.9736 -49.1667 56.6941 -35.4605 0.688835 18.8412 -0.114292 -15.1737 0.774403 -1.77327 1.40086 -2.34143 -10.334 0.0 0.0 0.0 0.696793 -7.18319 5.50214 -50.0344 -1.22517 7.34086 37.9157 10.2201 -4.69043 1.1936 -0.0 -0.0 -0.0 0.0 -0.0 24.1368 -0.464981 6.13854 -30.1651 -0.0377073 -4.57598 6.42575 -18.4111 0.93921 -8.69956 0.0 0.0 0.0 0.0 0.0 
